<?xml version="1.0" encoding="UTF-8" standalone="no"?>
<!DOCTYPE svg PUBLIC "-//W3C//DTD SVG 1.1//EN"
"http://www.w3.org/Graphics/SVG/1.1/DTD/svg11.dtd">


<!-- Page 1 -->
<svg x="0" y="0" width="2424" height="1512" viewBox="0 0 2424 1512" version="1.1" xmlns="http://www.w3.org/2000/svg" xmlns:xlink="http://www.w3.org/1999/xlink"
style="display: block;margin-left: auto;margin-right: auto;">
<defs>
<clipPath id="c0_1"><path d="M13.8,1508V1072.5H2345.7V1508Z" /></clipPath>

<style type="text/css"><![CDATA[

.g0_1{
fill: #FFFFFF;
}
.g1_1{
fill: #0080FF;
fill-opacity: 0.5;
}
.g2_1{
fill-opacity: 0.2386;
}
.g3_1{
fill-opacity: 0.20740001;
}
.g4_1{
fill-opacity: 0.3738;
}
.g5_1{
fill: none;
stroke: #000000;
stroke-width: 6.805197;
stroke-linecap: butt;
stroke-linejoin: miter;
}
.g6_1{
}
.g7_1{
fill: none;
stroke: #000000;
stroke-width: 3.1757584;
stroke-linecap: round;
stroke-linejoin: miter;
}
.g8_1{
fill: none;
stroke: #FB0207;
stroke-width: 7.258876;
stroke-linecap: butt;
stroke-linejoin: miter;
stroke-opacity: 0.7521;
stroke-dasharray: 12,5,12,5;
}
.g9_1{
fill: #FB0207;
fill-opacity: 0.7521;
}
.g10_1{
fill: #9E5544;
fill-opacity: 0.35000002;
}
.g11_1{
fill: none;
stroke: #613127;
stroke-width: 4.5833335;
stroke-linecap: round;
stroke-linejoin: round;
}
.g12_1{
fill: #94B2EB;
fill-opacity: 0.2;
}
.g13_1{
fill: none;
stroke: #7995C7;
stroke-width: 4.5833335;
stroke-linecap: round;
stroke-linejoin: round;
}
.g14_1{
fill: #BDEAEC;
fill-opacity: 0.5;
}
.g15_1{
fill: none;
stroke: #99B3B5;
stroke-width: 4.5833335;
stroke-linecap: round;
stroke-linejoin: round;
}
.g16_1{
fill: none;
stroke: #000000;
stroke-width: 13.75;
stroke-linecap: round;
stroke-linejoin: round;
}
.g17_1{
fill: none;
stroke: #000000;
stroke-width: 13.75;
stroke-linecap: butt;
stroke-linejoin: miter;
}
.g18_1{
fill: none;
stroke: #000000;
stroke-width: 4.5833335;
stroke-linecap: round;
stroke-linejoin: round;
}
.g19_1{
fill: #F1F1F1;
}
.g20_1{
fill: none;
stroke: #808080;
stroke-width: 4.5833335;
stroke-linecap: round;
stroke-linejoin: round;
}
.g21_1{
fill: none;
stroke: #000000;
stroke-width: 4.5833335;
stroke-linecap: butt;
stroke-linejoin: miter;
}
.g22_1{
fill: none;
stroke: #A5A5A5;
stroke-width: 9.166667;
stroke-linecap: round;
stroke-linejoin: round;
stroke-dasharray: 37,37;
}

.s1_1{
font-size: 27.22px;
font-family: Helvetica_b;
fill: #000000;
}
.s2_1{
font-size: 47.64px;
font-family: SourceSansPro-Bold_c;
fill: #000000;
}
.s3_1{
font-size: 36.29px;
font-family: SourceCodePro-Bold_d;
fill: #FB0207;
}
.s4_1{
font-size: 40.83px;
font-family: SourceCodePro-Bold_d;
fill: rgba(0, 0, 0, 0.74);
}
.s5_1{
font-size: 40.83px;
font-family: SourceCodePro-Bold_d;
fill: rgba(0, 128, 255, 0.92);
}
.s6_1{
font-size: 68.75px;
font-family: SourceSansPro-Semibold_g;
fill: #000000;
}
.s7_1{
font-size: 68.75px;
font-family: SourceCodePro-Semibold_h;
fill: #000000;
}
.s8_1{
font-size: 68.75px;
font-family: SourceCodePro-Bold_i;
fill: #000000;
}
.s9_1{
font-size: 64.17px;
font-family: SourceSansPro-Regular_j;
fill: #000000;
}
.s10_1{
font-size: 73.33px;
font-family: Inconsolata_k;
fill: #000000;
}
.s11_1{
font-size: 55.00px;
font-family: SourceCodePro-Semibold_h;
fill: #000000;
}
.s12_1{
font-size: 73.33px;
font-family: SourceSansPro-Semibold_g;
fill: #000000;
}
.s13_1{
font-size: 55.00px;
font-family: SourceCodePro-SemiboldIt_l;
fill: #000000;
}
.s14_1{
font-size: 59.58px;
font-family: SourceSansPro-It_m;
fill: #5F5F5F;
}
.s15_1{
font-size: 68.75px;
font-family: SourceCodePro-Semibold_h;
fill: #666666;
}
.s16_1{
font-size: 55.00px;
font-family: SourceCodePro-Semibold_h;
fill: #666666;
}

]]></style>

</defs>
<path d="M0,0
L0,1512
L2424,1512
L2424,0 Z " 
fill="#FFFFFF" stroke="none" />
<path d="M0,1512.5H2424.6V0H0V1512.5Z" class="g0_1" />
<path d="M0,0H2424.6V1512.5H0Z" class="g0_1" />
<g clip-path="url(#c0_1)">
<path d="M13.8,1508H2345.7V1072.5H13.8V1508Z" class="g0_1" />
</g>
<path d="M960.7,1255.2c6.5,-14.4,5.4,-4.9,7.6,1c2.3,6.1,8.1,8.3,13.9,14.3c5.7,6,11.6,15.6,29.5,5.2v96.2H960.2l.5,-116.7Z" class="g1_1" />
<path d="M1387.3,1171.4c4.1,.5,7.8,1.6,10.7,3.2c9.6,5.3,11.9,16.5,17.2,26.8c5.4,10.3,13.7,19.9,30.2,29.9c6,3.7,13.2,7.4,19.8,10.7l-2.3,129.9h-80.3l4.7,-200.5Z" class="g1_1" />
<path d="M2163.6,1285.7c7.8,-15.3,13.9,-27.8,19.9,-31.7c7.3,-4.9,14.5,3.1,20.8,0c6.3,-3.2,11.9,-17.6,22.2,-27.1c10.3,-9.5,25.5,-14,34.7,5c3.4,6.9,6,16.8,7.9,26.7l1.4,113.3H2163.1l.5,-86.2Z" class="g1_1" />
<path d="M429,1090.6h84.6v40.9H429v-40.9Z" class="g1_1" />
<path d="M1011.7,1275.7c18,-10.4,48.2,-40.9,64.2,-43.3v139.5h-64.2v-96.2Z" class="g2_1" />
<path d="M1263.4,1285.7c11,-27.5,17.5,-49.6,25.6,-58.7c8.2,-9.1,18.1,-5.1,20.9,-6.4c2.8,-1.2,-1.5,-7.8,4.8,-17c6.3,-9.3,23.1,-21.3,39.9,-27.6c11.7,-4.3,23.4,-5.8,32.7,-4.6l-4.7,200.5H1263.4v-86.2Z" class="g2_1" />
<path d="M1465.2,1242c11.5,5.6,21.4,9.9,21.4,9.9v120h-23.7l2.3,-129.9Z" class="g2_1" />
<path d="M1486.6,1251.9c0,0,13.8,15.2,32.4,34.3l8.5,85.7h-40.9v-120Z" class="g2_1" />
<path d="M2002.4,1237.7v134.2h92.7v-92.1c-7.3,-18.3,-13.3,-22.3,-30.8,-25.8c-17.6,-3.6,-46.9,-6.7,-61.9,-16.3Z" class="g3_1" />
<path d="M1703.4,1267.1c6,-14.5,10.9,-28.4,16.6,-30.4c9.5,-3.3,21.2,26.6,29.3,33.1c8.1,6.5,12.7,-10.5,16.4,-17.5c3.8,-7,6.7,-4,9.7,-4.9c2.9,-.9,6,-5.8,8.5,-14.1c2.4,-8.4,4.5,-20.5,5.6,-20.2c1.1,.4,1.5,13,4.4,0c2.9,-12.9,8.4,-51.4,12.3,-57c3.8,-5.6,6.1,21.8,19.7,39.5c13.6,17.7,38.7,25.8,55.1,30.2c16.4,4.4,24.3,5.2,31.9,8.5c7.6,3.4,15.2,9.3,27.2,3.4c12.1,-5.9,28.9,-23.6,37.7,-24.6c8.7,-.9,9.6,15.1,24.6,24.6v134.2h-299V1267.1Z" class="g1_1" />
<path d="M1075.9,1232.4c16.1,-2.4,18.1,23.2,30,23.8c11.8,.7,33.7,-23.7,45.3,-40.8c11.7,-17.1,13.3,-26.9,15.3,-22.2c2.1,4.7,4.7,23.9,14,32.7c9.4,8.7,25.5,7.1,33.3,30.9c2.4,7.2,4,16.9,5.3,27.1l-7.3,88H1075.9V1232.4Z" class="g1_1" />
<path d="M429,1090.6h84.6v40.9H429v-40.9Z" class="g1_1" />
<path d="M428.4,1162.8H513v40.9H428.4v-40.9Z" class="g4_1" />
<path d="M579.2,1272.3v99.6H795.7l.8,-97.4c-20.4,-6.2,-46,-6.4,-59.5,-10.6c-19,-5.9,-14.2,-19.7,-13.4,-19.2c.9,.5,-2.3,15.1,-5.7,18.1c-3.3,2.9,-6.9,-6,-8.4,-8.2c-1.6,-2.3,-1.2,2,-9.7,-.9c-8.6,-3,-26.1,-13.2,-33.3,-38.3c-7.1,-25.1,-4,-65.1,-7.8,-56c-3.8,9.1,-14.6,67.3,-25,79.7C623.2,1251.4,613,1218,604.2,1215.4c-8.8,-2.6,-16.4,25.6,-25,56.9Z" class="g1_1" />
<path d="M143,1371.9H2314.7M146.5,1358.3V1381m215.4,-22.7V1381m217.8,-22.7V1381m215.5,-22.7V1381M1013,1358.3V1381m215.5,-22.7V1381m217.7,-22.7V1381m215.5,-22.7V1381m217.8,-22.7V1381M2095,1358.3V1381" class="g5_1" />
<path d="M2332.1,1371.9l-40.9,-20.4l20.4,20.4l-20.4,20.4Z" class="g6_1" />
<path d="M146.1,1375V1103.5" class="g5_1" />
<path d="M146.1,1086.1l-20.4,40.8l20.4,-20.4l20.4,20.4Z" class="g6_1" />
<text x="2296" y="1412" class="s1_1">10</text>
<text x="138" y="1412" class="s1_1">0</text>
<text x="355" y="1412" class="s1_1">1</text>
<text x="571" y="1412" class="s1_1">2</text>
<text x="788" y="1412" class="s1_1">3</text>
<text x="1004" y="1412" class="s1_1">4</text>
<text x="1221" y="1412" class="s1_1">5</text>
<text x="1437" y="1412" class="s1_1">6</text>
<text x="1654" y="1412" class="s1_1">7</text>
<text x="1870" y="1412" class="s1_1">8</text>
<text x="2087" y="1412" class="s1_1">9</text>
<path d="M146.1,1378.7c0,0,14.5,-13.5,20,-20.6c5.4,-7,1.8,-7.6,6.1,-8.9c4.4,-1.3,16.8,-3.2,22.5,-4.9c5.7,-1.7,4.9,-3.2,8.3,-5.6c3.4,-2.4,11.2,-5.7,16.1,-9.1c5,-3.5,7.1,-7.1,10.6,-8.8c3.5,-1.7,8.4,-1.5,11,-.7c2.6,.8,3,2.3,5.8,-3.3c2.8,-5.5,8,-18.1,10.8,-21.2c2.7,-3,3,3.5,4,9.4c1.1,6,3,11.3,6.2,13.5c3.2,2.2,7.8,1.2,12.7,3.6c5,2.4,10.5,8.1,12.5,8.4c2.1,.3,.7,-4.8,1.9,-10.5c1.1,-5.7,4.7,-12.1,12.9,-17c8.2,-4.9,21,-8.4,26.1,-17.3c5.2,-8.8,2.7,-23.1,13.1,-10.5c10.5,12.5,33.9,51.9,43.3,62.8c9.3,10.9,4.6,-6.8,12,-17.3c7.4,-10.5,27,-13.9,37.7,-18.2c10.7,-4.3,12.6,-9.5,17.5,-9.8c5,-.3,13.2,4.3,20.5,0c7.3,-4.3,13.9,-17.7,20.9,-18.5c7,-.8,14.6,10.8,21.4,11.5c6.9,.8,13.1,-9.3,18.1,3.5c5,12.7,9,48.2,15.8,48.7c6.9,.5,16.7,-34.2,25.3,-65.6c8.6,-31.3,16.2,-59.5,25,-56.9c8.8,2.6,19,36,29.5,23.7c10.4,-12.4,21.2,-70.6,25,-79.7c3.8,-9.1,.7,30.9,7.8,56c7.2,25.1,24.7,35.3,33.3,38.3c8.5,2.9,8.1,-1.4,9.7,.9c1.5,2.2,5.1,11.1,8.4,8.2c3.4,-3,6.6,-17.6,5.7,-18.1c-.8,-.5,-5.6,13.3,13.4,19.2c19,5.9,61.8,3.9,80.6,21.8c18.8,17.9,13.8,55.7,22.4,52.2c8.6,-3.5,31,-48.2,47.1,-52.2c16.1,-4,25.9,32.7,38.4,30.3c12.5,-2.4,27.8,-43.9,34.8,-59.8c7,-15.8,5.8,-6,8,0c2.3,6.1,8.1,8.3,13.9,14.3c5.7,6,11.6,15.6,29.5,5.2c18,-10.4,48.2,-40.9,64.2,-43.3c16.1,-2.4,18.1,23.2,30,23.8c11.8,.7,33.7,-23.7,45.3,-40.8c11.7,-17.1,13.3,-26.9,15.3,-22.2c2.1,4.7,4.7,23.9,14,32.7c9.4,8.7,25.5,7.1,33.3,30.9c7.8,23.7,7.4,72.9,15.1,81.1c7.6,8.2,23.4,-24.7,34.5,-52.2c11,-27.5,17.5,-49.6,25.6,-58.7c8.2,-9.1,18.1,-5.1,20.9,-6.4c2.8,-1.2,-1.5,-7.8,4.8,-17c6.3,-9.3,23.1,-21.3,39.9,-27.6c16.9,-6.2,33.8,-6.7,43.4,-1.4c9.6,5.3,11.9,16.5,17.2,26.8c5.4,10.3,13.7,19.9,30.2,29.9c16.5,10.1,41.2,20.6,41.2,20.6m0,0c0,0,72.6,80.2,109.4,102.8c36.9,22.6,38,-12.6,48.7,-29.1c10.6,-16.5,30.8,-14.4,44.6,-31.7c13.7,-17.2,21.2,-53.8,30.7,-57.2c9.5,-3.3,21.2,26.6,29.3,33.1c8.1,6.5,12.7,-10.5,16.4,-17.5c3.8,-7,6.7,-4,9.7,-4.9c2.9,-.9,6,-5.8,8.5,-14.1c2.4,-8.4,4.5,-20.5,5.6,-20.2c1.1,.4,1.5,13,4.4,0c2.9,-12.9,8.4,-51.4,12.3,-57c3.8,-5.6,6.1,21.8,19.7,39.5c13.6,17.7,38.7,25.8,55.1,30.2c16.4,4.4,24.3,5.2,31.9,8.5c7.6,3.4,15.2,9.3,27.2,3.4c12.1,-5.9,28.9,-23.6,37.7,-24.6c8.7,-.9,9.6,15.1,24.6,24.6c15,9.6,44.3,12.7,61.9,16.3c17.5,3.5,23.5,7.5,30.8,25.8c7.3,18.3,16.1,51,27.2,55.8c11.2,4.9,24.9,-18,35.5,-38.4c10.6,-20.4,18.3,-38.3,25.7,-43.2c7.3,-4.9,14.5,3.1,20.8,0c6.3,-3.2,11.9,-17.6,22.2,-27.1c10.3,-9.5,25.5,-14,34.7,5c9.3,19,12.6,61.4,12.6,61.4" class="g7_1" />
<path d="M146.1,1285.7H2290.5" class="g8_1" />
<path d="M148.6,1288.3c1.5,-1.4,1.5,-3.7,0,-5.1c-1.4,-1.5,-3.7,-1.5,-5.1,0c-1.4,1.4,-1.4,3.7,0,5.1c1.4,1.4,3.7,1.4,5.1,0Z" class="g9_1" />
<path d="M2293.1,1288.3c1.4,-1.4,1.4,-3.7,0,-5.1c-1.5,-1.5,-3.8,-1.5,-5.2,0c-1.4,1.4,-1.4,3.7,0,5.1c1.4,1.4,3.7,1.4,5.2,0Z" class="g9_1" />
<path d="M1489.8,1255.1c1.8,-1.8,1.8,-4.6,0,-6.4c-1.7,-1.8,-4.6,-1.8,-6.4,0c-1.8,1.8,-1.8,4.6,0,6.4c1.8,1.8,4.7,1.8,6.4,0Z" class="g6_1" />
<text x="1039" y="1480" dx="0,0,-1.2,0,0,0,0,0,0,0,0,0,0,0,0,0,0,0" class="s2_1">Execution Time (s)</text>
<text transform="matrix(0, -1, 1, 0, 88, 1318)" dx="0,-0.9,0,0,-0.6,0,-0.9" class="s2_1">Voltage</text>
<text x="168" y="1261" class="s3_1">Turn-off Threshold</text>
<text x="267" y="1192" class="s4_1">Sleep</text>
<text x="174" y="1121" class="s5_1">Execution</text>
<path d="M807.4,165.8H2191.6c5.1,0,9.2,4.1,9.2,9.1V404.1c0,5.1,-4.1,9.2,-9.2,9.2H807.4c-5,0,-9.1,-4.1,-9.1,-9.2V174.9c0,-5,4.1,-9.1,9.1,-9.1Z" class="g10_1" />
<path d="M807.4,165.8H2191.6c5.1,0,9.2,4.1,9.2,9.1V404.1c0,5.1,-4.1,9.2,-9.2,9.2H807.4c-5,0,-9.1,-4.1,-9.1,-9.2V174.9c0,-5,4.1,-9.1,9.1,-9.1Z" class="g11_1" />
<path d="M807.4,495.8H2191.6c5.1,0,9.2,4.1,9.2,9.1V734.1c0,5.1,-4.1,9.2,-9.2,9.2H807.4c-5,0,-9.1,-4.1,-9.1,-9.2V504.9c0,-5,4.1,-9.1,9.1,-9.1Z" class="g12_1" />
<path d="M807.4,495.8H2191.6c5.1,0,9.2,4.1,9.2,9.1V734.1c0,5.1,-4.1,9.2,-9.2,9.2H807.4c-5,0,-9.1,-4.1,-9.1,-9.2V504.9c0,-5,4.1,-9.1,9.1,-9.1Z" class="g13_1" />
<path d="M807.4,825.8H2191.6c5.1,0,9.2,4.1,9.2,9.1v229.2c0,5.1,-4.1,9.2,-9.2,9.2H807.4c-5,0,-9.1,-4.1,-9.1,-9.2V834.9c0,-5,4.1,-9.1,9.1,-9.1Z" class="g14_1" />
<path d="M807.4,825.8H2191.6c5.1,0,9.2,4.1,9.2,9.1v229.2c0,5.1,-4.1,9.2,-9.2,9.2H807.4c-5,0,-9.1,-4.1,-9.1,-9.2V834.9c0,-5,4.1,-9.1,9.1,-9.1Z" class="g15_1" />
<path d="M1086.3,618.8h35.2" class="g16_1" />
<path d="M1147.2,618.8l-25.7,-9.7v19.3Z" class="g6_1" />
<path d="M1147.2,618.8l-25.7,-9.7v19.3Z" class="g17_1" />
<path d="M1498.8,618.8H1534" class="g16_1" />
<path d="M1559.7,618.8L1534,609.1v19.3Z" class="g6_1" />
<path d="M1559.7,618.8L1534,609.1v19.3Z" class="g17_1" />
<path d="M1168.8,955.9h117.7" class="g16_1" />
<path d="M1312.2,955.9l-25.7,-9.6v19.2Z" class="g6_1" />
<path d="M1312.2,955.9l-25.7,-9.6v19.2Z" class="g17_1" />
<path d="M839.5,537H1087V702H839.5Z" class="g0_1" />
<path d="M839.5,537H1087V702H839.5Z" class="g18_1" />
<text x="874" y="643" class="s6_1">Sense</text>
<path d="M1169.5,537h330V702h-330Z" class="g0_1" />
<path d="M1169.5,537h330V702h-330Z" class="g18_1" />
<text x="1205" y="643" dx="0,-1.1,-0.8,0,-0.3,0,-0.7,0,0" class="s6_1">Features </text>
<path d="M839.5,873.1h330v165h-330Z" class="g0_1" />
<path d="M839.5,873.1h330v165h-330Z" class="g18_1" />
<text x="891" y="937" class="s6_1">Sample</text>
<text x="921" y="1024" dx="0,-4.9,0,0" class="s6_1">Temp</text>
<path d="M1194.5,850.5c16.1,16.1,16.1,42.2,0,58.3c-16.1,16.1,-42.3,16.1,-58.4,0c-16.1,-16.1,-16.1,-42.2,0,-58.3c16.1,-16.1,42.3,-16.1,58.4,0Z" class="g19_1" />
<path d="M1194.5,850.5c16.1,16.1,16.1,42.2,0,58.3c-16.1,16.1,-42.3,16.1,-58.4,0c-16.1,-16.1,-16.1,-42.2,0,-58.3c16.1,-16.1,42.3,-16.1,58.4,0" class="g20_1" />
<text x="1144" y="904" class="s7_1">5</text>
<path d="M1524.5,520.5c16.1,16.1,16.1,42.2,0,58.3c-16.1,16.1,-42.3,16.1,-58.4,0c-16.1,-16.1,-16.1,-42.2,0,-58.3c16.1,-16.1,42.3,-16.1,58.4,0Z" class="g19_1" />
<path d="M1524.5,520.5c16.1,16.1,16.1,42.2,0,58.3c-16.1,16.1,-42.3,16.1,-58.4,0c-16.1,-16.1,-16.1,-42.2,0,-58.3c16.1,-16.1,42.3,-16.1,58.4,0" class="g20_1" />
<text x="1474" y="574" class="s7_1">3</text>
<path d="M1112,520.5c16.1,16.1,16.1,42.2,0,58.3c-16.1,16.1,-42.3,16.1,-58.4,0c-16.1,-16.1,-16.1,-42.2,0,-58.3c16.1,-16.1,42.3,-16.1,58.4,0Z" class="g19_1" />
<path d="M1112,520.5c16.1,16.1,16.1,42.2,0,58.3c-16.1,16.1,-42.3,16.1,-58.4,0c-16.1,-16.1,-16.1,-42.2,0,-58.3c16.1,-16.1,42.3,-16.1,58.4,0" class="g20_1" />
<text x="1062" y="574" class="s7_1">2</text>
<text x="25" y="604" class="s8_1">signal(Accel)</text>
<text x="26" y="690" dx="0,0,0,0,0,0,0,0,-0.3,-0.3,0,0,0,0,-0.6,0,0,0,0,0,0" class="s9_1">Motion overthreshold.</text>
<text x="25" y="280" class="s8_1">energy(HIGH)</text>
<text x="26" y="367" dx="0,0,0,0,0,0,0,0,0,-0.6,-0.3,0,0,0,-1.3,0,0,0,0,0,0,0" class="s9_1">High energy available.</text>
<text x="25" y="937" class="s8_1">timer(5s)</text>
<text x="26" y="1024" class="s9_1">Timer elapsed.</text>
<path d="M715,618.8h76.5" class="g16_1" />
<path d="M817.2,618.8l-25.7,-9.7v19.3Z" class="g6_1" />
<path d="M817.2,618.8l-25.7,-9.7v19.3Z" class="g17_1" />
<path d="M715,288.8h76.5" class="g16_1" />
<path d="M817.2,288.8l-25.7,-9.7v19.3Z" class="g6_1" />
<path d="M817.2,288.8l-25.7,-9.7v19.3Z" class="g17_1" />
<path d="M715,955.9h76.5" class="g16_1" />
<path d="M817.2,955.9l-25.7,-9.6v19.2Z" class="g6_1" />
<path d="M817.2,955.9l-25.7,-9.6v19.2Z" class="g17_1" />
<path d="M2290.3,860.3v-462" class="g16_1" />
<path d="M2290.3,372.6l-9.6,25.7H2300Z" class="g6_1" />
<path d="M2290.3,372.6l-9.6,25.7H2300ZM2316,860.3h-51.3" class="g17_1" />
<text x="2216" y="306" class="s10_1">High</text>
<text x="2235" y="961" class="s10_1">Low</text>
<text transform="matrix(0, 1, -1, 0, 2339, 493)" class="s10_1">Priority</text>
<path d="M734.8,937.6L715.4,922.3l44.1,-30.5l-70,27.5l17.9,14.9L655,958.3l21.4,19l-39.1,24.5L702,979.1L681.7,961l53.1,-23.4Z" class="g0_1" />
<path d="M734.8,937.6L715.4,922.3l44.1,-30.5l-70,27.5l17.9,14.9L655,958.3l21.4,19l-39.1,24.5L702,979.1L681.7,961l53.1,-23.4Z" class="g20_1" />
<path d="M734.8,607.6L715.4,592.3l44.1,-30.5l-70,27.5l17.9,14.9L655,628.3l21.4,19l-39.1,24.5L702,649.1L681.7,631l53.1,-23.4Z" class="g0_1" />
<path d="M734.8,607.6L715.4,592.3l44.1,-30.5l-70,27.5l17.9,14.9L655,628.3l21.4,19l-39.1,24.5L702,649.1L681.7,631l53.1,-23.4Z" class="g20_1" />
<path d="M734.8,276.9L715.4,261.6l44.1,-30.5l-70,27.5l17.9,15L655,297.7l21.4,19l-39.1,24.4L702,318.4L681.7,300.3l53.1,-23.4Z" class="g0_1" />
<path d="M734.8,276.9L715.4,261.6l44.1,-30.5l-70,27.5l17.9,15L655,297.7l21.4,19l-39.1,24.4L702,318.4L681.7,300.3l53.1,-23.4Z" class="g20_1" />
<path d="M694.7,1155.4c12,12.1,12,31.7,0,43.7c-12.1,12.1,-31.7,12.1,-43.8,0c-12.1,-12,-12.1,-31.6,0,-43.7c12.1,-12.1,31.7,-12.1,43.8,0Z" class="g19_1" />
<path d="M694.7,1155.4c12,12.1,12,31.7,0,43.7c-12.1,12.1,-31.7,12.1,-43.8,0c-12.1,-12,-12.1,-31.6,0,-43.7c12.1,-12.1,31.7,-12.1,43.8,0" class="g20_1" />
<text x="656" y="1197" class="s11_1">1</text>
<path d="M1198,1191.7c12.1,12.1,12.1,31.7,0,43.8c-12.1,12,-31.7,12,-43.8,0c-12.1,-12.1,-12.1,-31.7,0,-43.8c12.1,-12.1,31.7,-12.1,43.8,0Z" class="g19_1" />
<path d="M1198,1191.7c12.1,12.1,12.1,31.7,0,43.8c-12.1,12,-31.7,12,-43.8,0c-12.1,-12.1,-12.1,-31.7,0,-43.8c12.1,-12.1,31.7,-12.1,43.8,0" class="g20_1" />
<text x="1159" y="1234" class="s11_1">6</text>
<path d="M1411.2,1168.3c12.1,12.1,12.1,31.7,0,43.8c-12.1,12.1,-31.7,12.1,-43.8,0c-12.1,-12.1,-12.1,-31.7,0,-43.8c12.1,-12.1,31.7,-12.1,43.8,0Z" class="g19_1" />
<path d="M1411.2,1168.3c12.1,12.1,12.1,31.7,0,43.8c-12.1,12.1,-31.7,12.1,-43.8,0c-12.1,-12.1,-12.1,-31.7,0,-43.8c12.1,-12.1,31.7,-12.1,43.8,0" class="g20_1" />
<text x="1372" y="1210" class="s11_1">1</text>
<path d="M1845.5,1159.7c12.1,12.1,12.1,31.6,0,43.7c-12.1,12.1,-31.7,12.1,-43.8,0c-12.1,-12.1,-12.1,-31.6,0,-43.7c12.1,-12.1,31.7,-12.1,43.8,0Z" class="g19_1" />
<path d="M1845.5,1159.7c12.1,12.1,12.1,31.6,0,43.7c-12.1,12.1,-31.7,12.1,-43.8,0c-12.1,-12.1,-12.1,-31.6,0,-43.7c12.1,-12.1,31.7,-12.1,43.8,0" class="g20_1" />
<text x="1807" y="1202" class="s11_1">1</text>
<path d="M636,1210.7c12.1,12.1,12.1,31.6,0,43.7c-12.1,12.1,-31.6,12.1,-43.7,0c-12.1,-12.1,-12.1,-31.6,0,-43.7c12.1,-12.1,31.6,-12.1,43.7,0Z" class="g19_1" />
<path d="M636,1210.7c12.1,12.1,12.1,31.6,0,43.7c-12.1,12.1,-31.6,12.1,-43.7,0c-12.1,-12.1,-12.1,-31.6,0,-43.7c12.1,-12.1,31.6,-12.1,43.7,0" class="g20_1" />
<text x="597" y="1253" class="s11_1">2</text>
<path d="M738.3,1242c12.1,12.1,12.1,31.7,0,43.8c-12.1,12.1,-31.6,12.1,-43.7,0c-12.1,-12.1,-12.1,-31.7,0,-43.8c12.1,-12.1,31.6,-12.1,43.7,0Z" class="g19_1" />
<path d="M738.3,1242c12.1,12.1,12.1,31.7,0,43.8c-12.1,12.1,-31.6,12.1,-43.7,0c-12.1,-12.1,-12.1,-31.7,0,-43.8c12.1,-12.1,31.6,-12.1,43.7,0" class="g20_1" />
<text x="699" y="1284" class="s11_1">3</text>
<path d="M996.7,1246.7c12.1,12.1,12.1,31.7,0,43.8c-12.1,12.1,-31.7,12.1,-43.7,0c-12.1,-12.1,-12.1,-31.7,0,-43.8c12,-12.1,31.6,-12.1,43.7,0Z" class="g19_1" />
<path d="M996.7,1246.7c12.1,12.1,12.1,31.7,0,43.8c-12.1,12.1,-31.7,12.1,-43.7,0c-12.1,-12.1,-12.1,-31.7,0,-43.8c12,-12.1,31.6,-12.1,43.7,0" class="g20_1" />
<text x="958" y="1289" class="s11_1">4</text>
<path d="M1120.6,1217.5c12,12,12,31.6,0,43.7c-12.1,12.1,-31.7,12.1,-43.8,0c-12.1,-12.1,-12.1,-31.7,0,-43.7c12.1,-12.1,31.7,-12.1,43.8,0Z" class="g19_1" />
<path d="M1120.6,1217.5c12,12,12,31.6,0,43.7c-12.1,12.1,-31.7,12.1,-43.8,0c-12.1,-12.1,-12.1,-31.7,0,-43.7c12.1,-12.1,31.7,-12.1,43.8,0" class="g20_1" />
<text x="1082" y="1259" class="s11_1">5</text>
<path d="M2216.1,1245.2c12.1,12.1,12.1,31.7,0,43.8c-12.1,12.1,-31.6,12.1,-43.7,0c-12.1,-12.1,-12.1,-31.7,0,-43.8c12.1,-12.1,31.6,-12.1,43.7,0Z" class="g19_1" />
<path d="M2216.1,1245.2c12.1,12.1,12.1,31.7,0,43.8c-12.1,12.1,-31.7,12.1,-43.7,0c-12.1,-12.1,-12.1,-31.7,0,-43.8c12,-12.1,31.6,-12.1,43.7,0" class="g20_1" />
<text x="2177" y="1287" class="s11_1">5</text>
<path d="M2276.9,1210.4c12.1,12.1,12.1,31.7,0,43.8c-12.1,12,-31.7,12,-43.7,0c-12.1,-12.1,-12.1,-31.7,0,-43.8c12,-12.1,31.6,-12.1,43.7,0Z" class="g19_1" />
<path d="M2276.9,1210.4c12.1,12.1,12.1,31.7,0,43.8c-12.1,12,-31.7,12,-43.7,0c-12.1,-12.1,-12.1,-31.7,0,-43.8c12,-12.1,31.6,-12.1,43.7,0" class="g20_1" />
<text x="2238" y="1252" class="s11_1">6</text>
<path d="M1746,1240.7c12.1,12.1,12.1,31.7,0,43.7c-12.1,12.1,-31.6,12.1,-43.7,0c-12.1,-12,-12.1,-31.6,0,-43.7c12.1,-12.1,31.6,-12.1,43.7,0Z" class="g19_1" />
<path d="M1746,1240.7c12.1,12.1,12.1,31.7,0,43.7c-12.1,12.1,-31.6,12.1,-43.7,0c-12.1,-12,-12.1,-31.6,0,-43.7c12.1,-12.1,31.6,-12.1,43.7,0" class="g20_1" />
<text x="1707" y="1283" class="s11_1">2</text>
<path d="M242.9,106.9H418.4" class="g21_1" />
<text x="242" y="98" dx="0,0,-0.4,0,0" class="s12_1">Event</text>
<path d="M1315.4,106.9h377.4" class="g21_1" />
<text x="1315" y="98" dx="0,-5,0,0,0,0,0,0,-0.7,-0.9,0" class="s12_1">Task Thread</text>
<path d="M1820.3,95.5h334.6c2.6,0,4.6,2,4.6,4.6v64.1c0,2.6,-2,4.6,-4.6,4.6H1820.3c-2.5,0,-4.5,-2,-4.5,-4.6V100.1c0,-2.6,2,-4.6,4.5,-4.6Z" class="g0_1" />
<path d="M2115.8,95.5h39.1c2.6,0,4.6,2,4.6,4.6v64.1c0,2.6,-2,4.6,-4.6,4.6h-39.1m-257.8,0h-37.7c-2.5,0,-4.5,-2,-4.5,-4.6V100.1c0,-2.6,2,-4.6,4.5,-4.6H1858" class="g18_1" />
<text x="1837" y="151" class="s11_1">TH1: </text>
<text x="2002" y="151" class="s13_1">Send</text>
<path d="M1687.4,425.5h467.5c2.6,0,4.6,2,4.6,4.6v64.1c0,2.6,-2,4.6,-4.6,4.6H1687.4c-2.5,0,-4.6,-2,-4.6,-4.6V430.1c0,-2.6,2.1,-4.6,4.6,-4.6Z" class="g0_1" />
<path d="M2099.2,425.5h55.7c2.6,0,4.6,2,4.6,4.6v64.1c0,2.6,-2,4.6,-4.6,4.6h-55.7m-357.5,0h-54.3c-2.5,0,-4.6,-2,-4.6,-4.6V430.1c0,-2.6,2.1,-4.6,4.6,-4.6h54.3" class="g18_1" />
<text x="1705" y="481" class="s11_1">TH2: </text>
<text x="1870" y="481" class="s13_1">Activity</text>
<path d="M1586.6,755.5h568.3c2.6,0,4.6,2,4.6,4.6v64.1c0,2.6,-2,4.6,-4.6,4.6H1586.6c-2.5,0,-4.6,-2,-4.6,-4.6V760.1c0,-2.6,2.1,-4.6,4.6,-4.6Z" class="g0_1" />
<path d="M2086.6,755.5h68.3c2.6,0,4.6,2,4.6,4.6v64.1c0,2.6,-2,4.6,-4.6,4.6h-68.3m-433.2,0h-66.8c-2.5,0,-4.6,-2,-4.6,-4.6V760.1c0,-2.6,2.1,-4.6,4.6,-4.6h66.8" class="g18_1" />
<text x="1604" y="811" class="s11_1">TH3: </text>
<text x="1769" y="811" class="s13_1">Temperature</text>
<path d="M1928,1215.8c12.1,12.1,12.1,31.7,0,43.8c-12.1,12.1,-31.7,12.1,-43.8,0c-12,-12.1,-12,-31.7,0,-43.8c12.1,-12,31.7,-12,43.8,0Z" class="g19_1" />
<path d="M1928,1215.8c12.1,12.1,12.1,31.7,0,43.8c-12.1,12.1,-31.7,12.1,-43.8,0c-12,-12.1,-12,-31.7,0,-43.8c12.1,-12,31.7,-12,43.8,0" class="g20_1" />
<text x="1889" y="1258" class="s11_1">3</text>
<path d="M2004,1215.2c12.1,12.1,12.1,31.6,0,43.7c-12.1,12.1,-31.7,12.1,-43.8,0c-12,-12.1,-12,-31.6,0,-43.7c12.1,-12.1,31.7,-12.1,43.8,0Z" class="g19_1" />
<path d="M2004,1215.2c12.1,12.1,12.1,31.6,0,43.7c-12.1,12.1,-31.7,12.1,-43.8,0c-12,-12.1,-12,-31.6,0,-43.7c12.1,-12.1,31.7,-12.1,43.8,0" class="g20_1" />
<text x="1965" y="1257" class="s11_1">4</text>
<path d="M1828.8,890.7H2035v131.4H1828.8Z" class="g0_1" />
<path d="M1828.8,890.7H2035v131.4H1828.8Z" class="g22_1" />
<text x="1864" y="976" class="s14_1">Sleep </text>
<path d="M1498.8,223.1H1705V354.4H1498.8Z" class="g0_1" />
<path d="M1498.8,223.1H1705V354.4H1498.8Z" class="g22_1" />
<text x="1534" y="309" class="s14_1">Sleep </text>
<path d="M1724.3,183.6c16.2,16.1,16.2,42.3,0,58.4c-16.1,16.1,-42.2,16.1,-58.3,0c-16.1,-16.1,-16.1,-42.3,0,-58.4c16.1,-16.1,42.2,-16.1,58.3,0Z" class="g19_1" />
<path d="M1724.3,183.6c16.2,16.1,16.2,42.3,0,58.4c-16.1,16.1,-42.2,16.1,-58.3,0c-16.1,-16.1,-16.1,-42.3,0,-58.4c16.1,-16.1,42.2,-16.1,58.3,0" class="g20_1" />
<text x="1674" y="238" class="s15_1">7</text>
<path d="M1952.5,553.1h206.3V684.4H1952.5Z" class="g0_1" />
<path d="M1952.5,553.1h206.3V684.4H1952.5Z" class="g22_1" />
<text x="1988" y="639" class="s14_1">Sleep </text>
<path d="M2184.5,520.5c16.1,16.1,16.1,42.2,0,58.3c-16.1,16.1,-42.3,16.1,-58.4,0c-16.1,-16.1,-16.1,-42.2,0,-58.3c16.1,-16.1,42.3,-16.1,58.4,0Z" class="g19_1" />
<path d="M2184.5,520.5c16.1,16.1,16.1,42.2,0,58.3c-16.1,16.1,-42.3,16.1,-58.4,0c-16.1,-16.1,-16.1,-42.2,0,-58.3c16.1,-16.1,42.3,-16.1,58.4,0" class="g20_1" />
<text x="2134" y="574" class="s15_1">7</text>
<path d="M2060.7,850.5c16.1,16.1,16.1,42.2,0,58.3c-16.1,16.1,-42.2,16.1,-58.3,0c-16.1,-16.1,-16.1,-42.2,0,-58.3c16.1,-16.1,42.2,-16.1,58.3,0Z" class="g19_1" />
<path d="M2060.7,850.5c16.1,16.1,16.1,42.2,0,58.3c-16.1,16.1,-42.2,16.1,-58.3,0c-16.1,-16.1,-16.1,-42.2,0,-58.3c16.1,-16.1,42.2,-16.1,58.3,0" class="g20_1" />
<text x="2010" y="904" class="s15_1">7</text>
<path d="M1333.8,288.8h115.4" class="g16_1" />
<path d="M1474.9,288.8l-25.7,-9.7v19.3Z" class="g6_1" />
<path d="M1474.9,288.8l-25.7,-9.7v19.3Z" class="g17_1" />
<path d="M1870,618.8h33" class="g16_1" />
<path d="M1928.7,618.8L1903,609.1v19.3Z" class="g6_1" />
<path d="M1928.7,618.8L1903,609.1v19.3Z" class="g17_1" />
<path d="M1663.8,955.9h115.5" class="g16_1" />
<path d="M1804.9,955.9l-25.7,-9.6v19.2Z" class="g6_1" />
<path d="M1804.9,955.9l-25.6,-9.6v19.2Z" class="g17_1" />
<path d="M1582,537h288.8V702H1582Z" class="g0_1" />
<path d="M1582,537h288.8V702H1582Z" class="g18_1" />
<text x="1611" y="643" class="s6_1">Classify</text>
<path d="M1334.5,873.1h330v165h-330Z" class="g0_1" />
<path d="M1334.5,873.1h330v165h-330Z" class="g18_1" />
<text x="1407" y="981" class="s6_1">EWMA</text>
<path d="M839.5,207h495V372h-495Z" class="g0_1" />
<path d="M839.5,207h495V372h-495Z" class="g18_1" />
<text x="869" y="313" dx="0,-3,-1.9,0,0,0,0,0,0,0,0,-1,0,-0.7" class="s6_1">Transmit State</text>
<path d="M1689.5,850.5c16.1,16.1,16.1,42.2,0,58.3c-16.1,16.1,-42.3,16.1,-58.4,0c-16.1,-16.1,-16.1,-42.2,0,-58.3c16.1,-16.1,42.3,-16.1,58.4,0Z" class="g19_1" />
<path d="M1689.5,850.5c16.1,16.1,16.1,42.2,0,58.3c-16.1,16.1,-42.3,16.1,-58.4,0c-16.1,-16.1,-16.1,-42.2,0,-58.3c16.1,-16.1,42.3,-16.1,58.4,0" class="g20_1" />
<text x="1639" y="904" class="s7_1">6</text>
<path d="M1895.7,520.5c16.1,16.1,16.1,42.2,0,58.3c-16.1,16.1,-42.2,16.1,-58.3,0c-16.1,-16.1,-16.1,-42.2,0,-58.3c16.1,-16.1,42.2,-16.1,58.3,0Z" class="g19_1" />
<path d="M1895.7,520.5c16.1,16.1,16.1,42.2,0,58.3c-16.1,16.1,-42.2,16.1,-58.3,0c-16.1,-16.1,-16.1,-42.2,0,-58.3c16.1,-16.1,42.2,-16.1,58.3,0" class="g20_1" />
<text x="1845" y="574" class="s7_1">4</text>
<path d="M1353.1,183.6c16.1,16.1,16.1,42.3,0,58.4c-16.1,16.1,-42.2,16.1,-58.3,0c-16.1,-16.1,-16.1,-42.3,0,-58.4c16.1,-16.1,42.2,-16.1,58.3,0Z" class="g19_1" />
<path d="M1353.1,183.6c16.1,16.1,16.1,42.3,0,58.4c-16.1,16.1,-42.2,16.1,-58.3,0c-16.1,-16.1,-16.1,-42.3,0,-58.4c16.1,-16.1,42.2,-16.1,58.3,0" class="g20_1" />
<text x="1303" y="238" class="s7_1">1</text>
<path d="M1073.6,1295.4c12.1,12.1,12.1,31.7,0,43.7c-12.1,12.1,-31.7,12.1,-43.7,0c-12.1,-12,-12.1,-31.6,0,-43.7c12,-12.1,31.6,-12.1,43.7,0Z" class="g19_1" />
<path d="M1073.6,1295.4c12.1,12.1,12.1,31.7,0,43.7c-12.1,12.1,-31.7,12.1,-43.7,0c-12.1,-12,-12.1,-31.6,0,-43.7c12,-12.1,31.6,-12.1,43.7,0" class="g20_1" />
<text x="1035" y="1337" class="s16_1">7</text>
<path d="M1358.6,1295.4c12.1,12.1,12.1,31.7,0,43.7c-12.1,12.1,-31.7,12.1,-43.8,0c-12.1,-12,-12.1,-31.6,0,-43.7c12.1,-12.1,31.7,-12.1,43.8,0Z" class="g19_1" />
<path d="M1358.6,1295.4c12.1,12.1,12.1,31.7,0,43.7c-12.1,12.1,-31.7,12.1,-43.8,0c-12.1,-12,-12.1,-31.6,0,-43.7c12.1,-12.1,31.7,-12.1,43.8,0" class="g20_1" />
<text x="1320" y="1337" class="s16_1">7</text>
<path d="M1523.6,1295.4c12.1,12.1,12.1,31.7,0,43.7c-12.1,12.1,-31.7,12.1,-43.8,0c-12.1,-12,-12.1,-31.6,0,-43.7c12.1,-12.1,31.7,-12.1,43.8,0Z" class="g19_1" />
<path d="M1523.6,1295.4c12.1,12.1,12.1,31.7,0,43.7c-12.1,12.1,-31.7,12.1,-43.8,0c-12.1,-12,-12.1,-31.6,0,-43.7c12.1,-12.1,31.7,-12.1,43.8,0" class="g20_1" />
<text x="1485" y="1337" class="s16_1">7</text>
<path d="M2071.2,1295.4c12.1,12.1,12.1,31.7,0,43.7c-12.1,12.1,-31.7,12.1,-43.8,0c-12,-12,-12,-31.6,0,-43.7c12.1,-12.1,31.7,-12.1,43.8,0Z" class="g19_1" />
<path d="M2071.2,1295.4c12.1,12.1,12.1,31.7,0,43.7c-12.1,12.1,-31.7,12.1,-43.8,0c-12,-12,-12,-31.6,0,-43.7c12.1,-12.1,31.7,-12.1,43.8,0" class="g20_1" />
<text x="2032" y="1337" class="s16_1">7</text>


<!-- Any embedded fonts defined here -->
<style type="text/css" ><![CDATA[

@font-face {
	font-family: SourceSansPro-Regular_j;
	src: url("fonts/SourceSansPro-Regular_j.woff") format("woff");
}

@font-face {
	font-family: Inconsolata_k;
	src: url("fonts/Inconsolata_k.woff") format("woff");
}

@font-face {
	font-family: SourceCodePro-Semibold_h;
	src: url("fonts/SourceCodePro-Semibold_h.woff") format("woff");
}

@font-face {
	font-family: SourceCodePro-Bold_i;
	src: url("fonts/SourceCodePro-Bold_i.woff") format("woff");
}

@font-face {
	font-family: SourceSansPro-Semibold_g;
	src: url("fonts/SourceSansPro-Semibold_g.woff") format("woff");
}

@font-face {
	font-family: SourceSansPro-It_m;
	src: url("fonts/SourceSansPro-It_m.woff") format("woff");
}

@font-face {
	font-family: SourceCodePro-Bold_d;
	src: url("fonts/SourceCodePro-Bold_d.woff") format("woff");
}

@font-face {
	font-family: Helvetica_b;
	src: url("fonts/Helvetica_b.woff") format("woff");
}

@font-face {
	font-family: SourceSansPro-Bold_c;
	src: url("fonts/SourceSansPro-Bold_c.woff") format("woff");
}

@font-face {
	font-family: SourceCodePro-SemiboldIt_l;
	src: url("fonts/SourceCodePro-SemiboldIt_l.woff") format("woff");
}

]]></style>

</svg>
